<mxfile host="app.diagrams.net" modified="2023-04-28T10:01:36.059Z" agent="Mozilla/5.0 (Windows NT 10.0; Win64; x64) AppleWebKit/537.36 (KHTML, like Gecko) Chrome/111.0.0.0 Safari/537.36 OPR/97.0.0.0" etag="BqM0wAox7luVqT2Rt7We" version="21.2.3">
  <diagram name="Page-1" id="_uO7qVumK3jslCfY0Fgz">
    <mxGraphModel dx="1633" dy="766" grid="1" gridSize="10" guides="1" tooltips="1" connect="1" arrows="1" fold="1" page="1" pageScale="1" pageWidth="827" pageHeight="1169" math="0" shadow="0">
      <root>
        <mxCell id="0" />
        <mxCell id="1" parent="0" />
        <mxCell id="E3m7JAYCyLsTVWtVHgMh-2" value="prodotti" style="shape=table;startSize=30;container=1;collapsible=1;childLayout=tableLayout;fixedRows=1;rowLines=0;fontStyle=1;align=center;resizeLast=1;" vertex="1" parent="1">
          <mxGeometry x="295" y="620" width="250" height="190" as="geometry">
            <mxRectangle x="243.75" y="510" width="90" height="30" as="alternateBounds" />
          </mxGeometry>
        </mxCell>
        <mxCell id="E3m7JAYCyLsTVWtVHgMh-3" value="" style="shape=partialRectangle;collapsible=0;dropTarget=0;pointerEvents=0;fillColor=none;points=[[0,0.5],[1,0.5]];portConstraint=eastwest;top=0;left=0;right=0;bottom=1;" vertex="1" parent="E3m7JAYCyLsTVWtVHgMh-2">
          <mxGeometry y="30" width="250" height="30" as="geometry" />
        </mxCell>
        <mxCell id="E3m7JAYCyLsTVWtVHgMh-4" value="PK" style="shape=partialRectangle;overflow=hidden;connectable=0;fillColor=none;top=0;left=0;bottom=0;right=0;fontStyle=1;" vertex="1" parent="E3m7JAYCyLsTVWtVHgMh-3">
          <mxGeometry width="30" height="30" as="geometry">
            <mxRectangle width="30" height="30" as="alternateBounds" />
          </mxGeometry>
        </mxCell>
        <mxCell id="E3m7JAYCyLsTVWtVHgMh-5" value="id INT(11) NOT NULL" style="shape=partialRectangle;overflow=hidden;connectable=0;fillColor=none;top=0;left=0;bottom=0;right=0;align=left;spacingLeft=6;fontStyle=5;" vertex="1" parent="E3m7JAYCyLsTVWtVHgMh-3">
          <mxGeometry x="30" width="220" height="30" as="geometry">
            <mxRectangle width="220" height="30" as="alternateBounds" />
          </mxGeometry>
        </mxCell>
        <mxCell id="E3m7JAYCyLsTVWtVHgMh-6" value="" style="shape=partialRectangle;collapsible=0;dropTarget=0;pointerEvents=0;fillColor=none;points=[[0,0.5],[1,0.5]];portConstraint=eastwest;top=0;left=0;right=0;bottom=0;" vertex="1" parent="E3m7JAYCyLsTVWtVHgMh-2">
          <mxGeometry y="60" width="250" height="30" as="geometry" />
        </mxCell>
        <mxCell id="E3m7JAYCyLsTVWtVHgMh-7" value="" style="shape=partialRectangle;overflow=hidden;connectable=0;fillColor=none;top=0;left=0;bottom=0;right=0;" vertex="1" parent="E3m7JAYCyLsTVWtVHgMh-6">
          <mxGeometry width="30" height="30" as="geometry">
            <mxRectangle width="30" height="30" as="alternateBounds" />
          </mxGeometry>
        </mxCell>
        <mxCell id="E3m7JAYCyLsTVWtVHgMh-8" value="nome text" style="shape=partialRectangle;overflow=hidden;connectable=0;fillColor=none;top=0;left=0;bottom=0;right=0;align=left;spacingLeft=6;" vertex="1" parent="E3m7JAYCyLsTVWtVHgMh-6">
          <mxGeometry x="30" width="220" height="30" as="geometry">
            <mxRectangle width="220" height="30" as="alternateBounds" />
          </mxGeometry>
        </mxCell>
        <mxCell id="E3m7JAYCyLsTVWtVHgMh-9" value="" style="shape=partialRectangle;overflow=hidden;connectable=0;fillColor=none;top=0;left=0;bottom=0;right=0;" vertex="1" parent="1">
          <mxGeometry x="295" y="729.9200000000001" width="30" height="30" as="geometry">
            <mxRectangle width="30" height="30" as="alternateBounds" />
          </mxGeometry>
        </mxCell>
        <mxCell id="E3m7JAYCyLsTVWtVHgMh-10" value="prezzo  float" style="shape=partialRectangle;overflow=hidden;connectable=0;fillColor=none;top=0;left=0;bottom=0;right=0;align=left;spacingLeft=6;" vertex="1" parent="1">
          <mxGeometry x="325" y="710" width="220" height="30" as="geometry">
            <mxRectangle width="220" height="30" as="alternateBounds" />
          </mxGeometry>
        </mxCell>
        <mxCell id="E3m7JAYCyLsTVWtVHgMh-11" value="nomeimg Text" style="shape=partialRectangle;overflow=hidden;connectable=0;fillColor=none;top=0;left=0;bottom=0;right=0;align=left;spacingLeft=6;" vertex="1" parent="1">
          <mxGeometry x="325" y="740" width="220" height="30" as="geometry">
            <mxRectangle width="220" height="30" as="alternateBounds" />
          </mxGeometry>
        </mxCell>
        <mxCell id="E3m7JAYCyLsTVWtVHgMh-12" value="promo Bool" style="shape=partialRectangle;overflow=hidden;connectable=0;fillColor=none;top=0;left=0;bottom=0;right=0;align=left;spacingLeft=6;" vertex="1" parent="1">
          <mxGeometry x="325" y="770" width="220" height="30" as="geometry">
            <mxRectangle width="220" height="30" as="alternateBounds" />
          </mxGeometry>
        </mxCell>
        <mxCell id="E3m7JAYCyLsTVWtVHgMh-13" value="acquisti" style="shape=rhombus;perimeter=rhombusPerimeter;whiteSpace=wrap;html=1;align=center;" vertex="1" parent="1">
          <mxGeometry x="310" y="429.9999999999999" width="220" height="110" as="geometry" />
        </mxCell>
        <mxCell id="E3m7JAYCyLsTVWtVHgMh-14" value="" style="endArrow=none;html=1;rounded=0;exitX=0.5;exitY=0;exitDx=0;exitDy=0;entryX=0.5;entryY=1;entryDx=0;entryDy=0;" edge="1" parent="1" source="E3m7JAYCyLsTVWtVHgMh-2" target="E3m7JAYCyLsTVWtVHgMh-13">
          <mxGeometry relative="1" as="geometry">
            <mxPoint x="607.5" y="89.92000000000007" as="sourcePoint" />
            <mxPoint x="472.5" y="187.92000000000007" as="targetPoint" />
          </mxGeometry>
        </mxCell>
        <mxCell id="E3m7JAYCyLsTVWtVHgMh-15" value="0" style="resizable=0;html=1;whiteSpace=wrap;align=left;verticalAlign=bottom;" connectable="0" vertex="1" parent="E3m7JAYCyLsTVWtVHgMh-14">
          <mxGeometry x="-1" relative="1" as="geometry" />
        </mxCell>
        <mxCell id="E3m7JAYCyLsTVWtVHgMh-16" value="N" style="resizable=0;html=1;whiteSpace=wrap;align=right;verticalAlign=bottom;" connectable="0" vertex="1" parent="E3m7JAYCyLsTVWtVHgMh-14">
          <mxGeometry x="1" relative="1" as="geometry">
            <mxPoint x="15" y="30" as="offset" />
          </mxGeometry>
        </mxCell>
        <mxCell id="E3m7JAYCyLsTVWtVHgMh-17" value="" style="line;strokeWidth=2;html=1;" vertex="1" parent="1">
          <mxGeometry x="465.25" y="449.9999999999999" width="40" height="10" as="geometry" />
        </mxCell>
        <mxCell id="E3m7JAYCyLsTVWtVHgMh-18" value="" style="ellipse;whiteSpace=wrap;html=1;aspect=fixed;" vertex="1" parent="1">
          <mxGeometry x="505.25" y="449.9999999999999" width="10" height="10" as="geometry" />
        </mxCell>
        <mxCell id="E3m7JAYCyLsTVWtVHgMh-19" value="" style="rounded=0;whiteSpace=wrap;html=1;dashed=1;" vertex="1" parent="1">
          <mxGeometry x="515.25" y="437.4999999999999" width="60" height="35" as="geometry" />
        </mxCell>
        <mxCell id="E3m7JAYCyLsTVWtVHgMh-20" value="data Date" style="text;html=1;strokeColor=none;fillColor=none;align=center;verticalAlign=middle;whiteSpace=wrap;rounded=0;" vertex="1" parent="1">
          <mxGeometry x="515.25" y="439.9999999999999" width="60" height="30" as="geometry" />
        </mxCell>
        <mxCell id="E3m7JAYCyLsTVWtVHgMh-21" value="utenti" style="shape=table;startSize=30;container=1;collapsible=1;childLayout=tableLayout;fixedRows=1;rowLines=0;fontStyle=1;align=center;resizeLast=1;" vertex="1" parent="1">
          <mxGeometry x="295" y="130" width="250" height="230" as="geometry">
            <mxRectangle x="295" y="130" width="70" height="30" as="alternateBounds" />
          </mxGeometry>
        </mxCell>
        <mxCell id="E3m7JAYCyLsTVWtVHgMh-22" value="" style="shape=partialRectangle;collapsible=0;dropTarget=0;pointerEvents=0;fillColor=none;points=[[0,0.5],[1,0.5]];portConstraint=eastwest;top=0;left=0;right=0;bottom=1;" vertex="1" parent="E3m7JAYCyLsTVWtVHgMh-21">
          <mxGeometry y="30" width="250" height="30" as="geometry" />
        </mxCell>
        <mxCell id="E3m7JAYCyLsTVWtVHgMh-23" value="PK" style="shape=partialRectangle;overflow=hidden;connectable=0;fillColor=none;top=0;left=0;bottom=0;right=0;fontStyle=1;" vertex="1" parent="E3m7JAYCyLsTVWtVHgMh-22">
          <mxGeometry width="30" height="30" as="geometry">
            <mxRectangle width="30" height="30" as="alternateBounds" />
          </mxGeometry>
        </mxCell>
        <mxCell id="E3m7JAYCyLsTVWtVHgMh-24" value="username_varchar(50) NOT NULL" style="shape=partialRectangle;overflow=hidden;connectable=0;fillColor=none;top=0;left=0;bottom=0;right=0;align=left;spacingLeft=6;fontStyle=5;" vertex="1" parent="E3m7JAYCyLsTVWtVHgMh-22">
          <mxGeometry x="30" width="220" height="30" as="geometry">
            <mxRectangle width="220" height="30" as="alternateBounds" />
          </mxGeometry>
        </mxCell>
        <mxCell id="E3m7JAYCyLsTVWtVHgMh-25" value="" style="shape=partialRectangle;collapsible=0;dropTarget=0;pointerEvents=0;fillColor=none;points=[[0,0.5],[1,0.5]];portConstraint=eastwest;top=0;left=0;right=0;bottom=0;" vertex="1" parent="E3m7JAYCyLsTVWtVHgMh-21">
          <mxGeometry y="60" width="250" height="30" as="geometry" />
        </mxCell>
        <mxCell id="E3m7JAYCyLsTVWtVHgMh-26" value="" style="shape=partialRectangle;overflow=hidden;connectable=0;fillColor=none;top=0;left=0;bottom=0;right=0;" vertex="1" parent="E3m7JAYCyLsTVWtVHgMh-25">
          <mxGeometry width="30" height="30" as="geometry">
            <mxRectangle width="30" height="30" as="alternateBounds" />
          </mxGeometry>
        </mxCell>
        <mxCell id="E3m7JAYCyLsTVWtVHgMh-27" value=" nome text" style="shape=partialRectangle;overflow=hidden;connectable=0;fillColor=none;top=0;left=0;bottom=0;right=0;align=left;spacingLeft=6;" vertex="1" parent="E3m7JAYCyLsTVWtVHgMh-25">
          <mxGeometry x="30" width="220" height="30" as="geometry">
            <mxRectangle width="220" height="30" as="alternateBounds" />
          </mxGeometry>
        </mxCell>
        <mxCell id="E3m7JAYCyLsTVWtVHgMh-28" value="" style="shape=partialRectangle;overflow=hidden;connectable=0;fillColor=none;top=0;left=0;bottom=0;right=0;" vertex="1" parent="1">
          <mxGeometry x="300" y="220" width="30" height="30" as="geometry">
            <mxRectangle width="30" height="30" as="alternateBounds" />
          </mxGeometry>
        </mxCell>
        <mxCell id="E3m7JAYCyLsTVWtVHgMh-29" value="cognome  Text" style="shape=partialRectangle;overflow=hidden;connectable=0;fillColor=none;top=0;left=0;bottom=0;right=0;align=left;spacingLeft=6;" vertex="1" parent="1">
          <mxGeometry x="330" y="220" width="220" height="30" as="geometry">
            <mxRectangle width="220" height="30" as="alternateBounds" />
          </mxGeometry>
        </mxCell>
        <mxCell id="E3m7JAYCyLsTVWtVHgMh-30" value="indirizzo Text" style="shape=partialRectangle;overflow=hidden;connectable=0;fillColor=none;top=0;left=0;bottom=0;right=0;align=left;spacingLeft=6;" vertex="1" parent="1">
          <mxGeometry x="330" y="250" width="220" height="30" as="geometry">
            <mxRectangle width="220" height="30" as="alternateBounds" />
          </mxGeometry>
        </mxCell>
        <mxCell id="E3m7JAYCyLsTVWtVHgMh-31" value="password Text " style="shape=partialRectangle;overflow=hidden;connectable=0;fillColor=none;top=0;left=0;bottom=0;right=0;align=left;spacingLeft=6;" vertex="1" parent="1">
          <mxGeometry x="330" y="280" width="220" height="30" as="geometry">
            <mxRectangle width="220" height="30" as="alternateBounds" />
          </mxGeometry>
        </mxCell>
        <mxCell id="E3m7JAYCyLsTVWtVHgMh-32" value="datanascita Date" style="shape=partialRectangle;overflow=hidden;connectable=0;fillColor=none;top=0;left=0;bottom=0;right=0;align=left;spacingLeft=6;" vertex="1" parent="1">
          <mxGeometry x="330" y="320" width="220" height="30" as="geometry">
            <mxRectangle width="220" height="30" as="alternateBounds" />
          </mxGeometry>
        </mxCell>
        <mxCell id="E3m7JAYCyLsTVWtVHgMh-33" value="" style="endArrow=none;html=1;rounded=0;exitX=0.5;exitY=0;exitDx=0;exitDy=0;entryX=0.5;entryY=1;entryDx=0;entryDy=0;" edge="1" parent="1" source="E3m7JAYCyLsTVWtVHgMh-13" target="E3m7JAYCyLsTVWtVHgMh-21">
          <mxGeometry relative="1" as="geometry">
            <mxPoint x="430" y="650" as="sourcePoint" />
            <mxPoint x="430" y="580" as="targetPoint" />
          </mxGeometry>
        </mxCell>
        <mxCell id="E3m7JAYCyLsTVWtVHgMh-34" value="N" style="resizable=0;html=1;whiteSpace=wrap;align=left;verticalAlign=bottom;" connectable="0" vertex="1" parent="E3m7JAYCyLsTVWtVHgMh-33">
          <mxGeometry x="-1" relative="1" as="geometry" />
        </mxCell>
        <mxCell id="E3m7JAYCyLsTVWtVHgMh-69" value="" style="line;strokeWidth=2;html=1;" vertex="1" parent="1">
          <mxGeometry x="330" y="449.9999999999999" width="40" height="10" as="geometry" />
        </mxCell>
        <mxCell id="E3m7JAYCyLsTVWtVHgMh-70" value="" style="ellipse;whiteSpace=wrap;html=1;aspect=fixed;fillColor=none;fontColor=default;" vertex="1" parent="1">
          <mxGeometry x="320" y="449.9999999999999" width="10" height="10" as="geometry" />
        </mxCell>
        <mxCell id="E3m7JAYCyLsTVWtVHgMh-71" value="" style="line;strokeWidth=2;html=1;" vertex="1" parent="1">
          <mxGeometry x="330" y="509.9999999999999" width="40" height="10" as="geometry" />
        </mxCell>
        <mxCell id="E3m7JAYCyLsTVWtVHgMh-72" value="" style="ellipse;whiteSpace=wrap;html=1;aspect=fixed;fillColor=none;" vertex="1" parent="1">
          <mxGeometry x="320" y="509.9999999999999" width="10" height="10" as="geometry" />
        </mxCell>
        <mxCell id="E3m7JAYCyLsTVWtVHgMh-73" value="" style="rounded=0;whiteSpace=wrap;html=1;dashed=1;" vertex="1" parent="1">
          <mxGeometry x="130" y="437.5" width="180" height="35" as="geometry" />
        </mxCell>
        <mxCell id="E3m7JAYCyLsTVWtVHgMh-74" value="" style="shape=table;startSize=0;container=1;collapsible=1;childLayout=tableLayout;fixedRows=1;rowLines=0;fontStyle=0;align=center;resizeLast=1;strokeColor=none;fillColor=none;collapsible=0;fontColor=default;" vertex="1" parent="1">
          <mxGeometry x="130" y="440" width="180" height="30" as="geometry" />
        </mxCell>
        <mxCell id="E3m7JAYCyLsTVWtVHgMh-75" value="" style="shape=tableRow;horizontal=0;startSize=0;swimlaneHead=0;swimlaneBody=0;fillColor=none;collapsible=0;dropTarget=0;points=[[0,0.5],[1,0.5]];portConstraint=eastwest;top=0;left=0;right=0;bottom=0;" vertex="1" parent="E3m7JAYCyLsTVWtVHgMh-74">
          <mxGeometry width="180" height="30" as="geometry" />
        </mxCell>
        <mxCell id="E3m7JAYCyLsTVWtVHgMh-76" value="FK" style="shape=partialRectangle;connectable=0;fillColor=none;top=0;left=0;bottom=0;right=0;fontStyle=0;overflow=hidden;whiteSpace=wrap;html=1;" vertex="1" parent="E3m7JAYCyLsTVWtVHgMh-75">
          <mxGeometry width="30" height="30" as="geometry">
            <mxRectangle width="30" height="30" as="alternateBounds" />
          </mxGeometry>
        </mxCell>
        <mxCell id="E3m7JAYCyLsTVWtVHgMh-77" value="usr &lt;br&gt;varchar(50) NOT NULL" style="shape=partialRectangle;connectable=0;fillColor=none;top=0;left=0;bottom=0;right=0;align=left;spacingLeft=6;fontStyle=0;overflow=hidden;whiteSpace=wrap;html=1;" vertex="1" parent="E3m7JAYCyLsTVWtVHgMh-75">
          <mxGeometry x="30" width="150" height="30" as="geometry">
            <mxRectangle width="150" height="30" as="alternateBounds" />
          </mxGeometry>
        </mxCell>
        <mxCell id="E3m7JAYCyLsTVWtVHgMh-78" value="" style="rounded=0;whiteSpace=wrap;html=1;dashed=1;" vertex="1" parent="1">
          <mxGeometry x="130" y="500" width="180" height="40" as="geometry" />
        </mxCell>
        <mxCell id="E3m7JAYCyLsTVWtVHgMh-79" value="" style="shape=table;startSize=0;container=1;collapsible=1;childLayout=tableLayout;fixedRows=1;rowLines=0;fontStyle=0;align=center;resizeLast=1;strokeColor=none;fillColor=none;collapsible=0;" vertex="1" parent="1">
          <mxGeometry x="130" y="505" width="180.00000000000006" height="30" as="geometry" />
        </mxCell>
        <mxCell id="E3m7JAYCyLsTVWtVHgMh-80" value="" style="shape=tableRow;horizontal=0;startSize=0;swimlaneHead=0;swimlaneBody=0;fillColor=none;collapsible=0;dropTarget=0;points=[[0,0.5],[1,0.5]];portConstraint=eastwest;top=0;left=0;right=0;bottom=0;" vertex="1" parent="E3m7JAYCyLsTVWtVHgMh-79">
          <mxGeometry width="180.00000000000006" height="30" as="geometry" />
        </mxCell>
        <mxCell id="E3m7JAYCyLsTVWtVHgMh-81" value="FK" style="shape=partialRectangle;connectable=0;fillColor=none;top=0;left=0;bottom=0;right=0;fontStyle=0;overflow=hidden;whiteSpace=wrap;html=1;" vertex="1" parent="E3m7JAYCyLsTVWtVHgMh-80">
          <mxGeometry width="30" height="30" as="geometry">
            <mxRectangle width="30" height="30" as="alternateBounds" />
          </mxGeometry>
        </mxCell>
        <mxCell id="E3m7JAYCyLsTVWtVHgMh-82" value="idprod&lt;br&gt;int(11) NOT NULL" style="shape=partialRectangle;connectable=0;fillColor=none;top=0;left=0;bottom=0;right=0;align=left;spacingLeft=6;fontStyle=0;overflow=hidden;whiteSpace=wrap;html=1;" vertex="1" parent="E3m7JAYCyLsTVWtVHgMh-80">
          <mxGeometry x="30" width="150.00000000000006" height="30" as="geometry">
            <mxRectangle width="150.00000000000006" height="30" as="alternateBounds" />
          </mxGeometry>
        </mxCell>
        <mxCell id="E3m7JAYCyLsTVWtVHgMh-83" value="0" style="text;html=1;align=center;verticalAlign=middle;resizable=0;points=[];autosize=1;strokeColor=none;fillColor=none;" vertex="1" parent="1">
          <mxGeometry x="416.25" y="358" width="30" height="30" as="geometry" />
        </mxCell>
        <mxCell id="E3m7JAYCyLsTVWtVHgMh-84" value="" style="line;strokeWidth=2;html=1;" vertex="1" parent="1">
          <mxGeometry x="465.25" y="509.9999999999999" width="40" height="10" as="geometry" />
        </mxCell>
        <mxCell id="E3m7JAYCyLsTVWtVHgMh-85" value="" style="ellipse;whiteSpace=wrap;html=1;aspect=fixed;" vertex="1" parent="1">
          <mxGeometry x="505.25" y="509.9999999999999" width="10" height="10" as="geometry" />
        </mxCell>
        <mxCell id="E3m7JAYCyLsTVWtVHgMh-86" value="" style="rounded=0;whiteSpace=wrap;html=1;dashed=1;" vertex="1" parent="1">
          <mxGeometry x="515.25" y="497.5" width="126" height="35" as="geometry" />
        </mxCell>
        <mxCell id="E3m7JAYCyLsTVWtVHgMh-87" value="prezzo Decimal (10,2)" style="text;html=1;strokeColor=none;fillColor=none;align=center;verticalAlign=middle;whiteSpace=wrap;rounded=0;" vertex="1" parent="1">
          <mxGeometry x="515.25" y="500" width="126" height="30" as="geometry" />
        </mxCell>
        <mxCell id="E3m7JAYCyLsTVWtVHgMh-88" value="" style="line;strokeWidth=2;html=1;rotation=-90;" vertex="1" parent="1">
          <mxGeometry x="367.5" y="432.5" width="25" height="10" as="geometry" />
        </mxCell>
        <mxCell id="E3m7JAYCyLsTVWtVHgMh-89" value="" style="ellipse;whiteSpace=wrap;html=1;aspect=fixed;fillColor=#000000;" vertex="1" parent="1">
          <mxGeometry x="375" y="419.9999999999999" width="10" height="10" as="geometry" />
        </mxCell>
        <mxCell id="E3m7JAYCyLsTVWtVHgMh-90" value="PK id int(11) NOT NULL" style="rounded=0;whiteSpace=wrap;html=1;dashed=1;" vertex="1" parent="1">
          <mxGeometry x="280" y="380" width="136.25" height="35" as="geometry" />
        </mxCell>
      </root>
    </mxGraphModel>
  </diagram>
</mxfile>
